<svg width="679" height="350" viewBox="0 0 679 350" fill="none" xmlns="http://www.w3.org/2000/svg">
<line x1="29.7253" y1="28.6463" x2="294.364" y2="52.3578" stroke="white"/>
<line x1="300.356" y1="52.6485" x2="387.356" y2="140.648" stroke="white"/>
<line x1="387.321" y1="140.617" x2="467.321" y2="207.617" stroke="white"/>
<line x1="467.092" y1="207.509" x2="654.092" y2="242.509" stroke="white"/>
<line x1="654.455" y1="243.208" x2="612.455" y2="335.208" stroke="white"/>
<line x1="467.5" y1="208.017" x2="464.5" y2="296.017" stroke="white"/>
<line x1="464.127" y1="295.517" x2="612.127" y2="334.517" stroke="white"/>
<path d="M467.5 185C467.939 197.24 477.76 207.061 490 207.5C477.76 207.939 467.939 217.76 467.5 230C467.061 217.76 457.24 207.939 445 207.5C457.24 207.061 467.061 197.24 467.5 185Z" fill="white"/>
<path d="M387 126C387.293 134.16 393.84 140.707 402 141C393.84 141.293 387.293 147.84 387 156C386.707 147.84 380.16 141.293 372 141C380.16 140.707 386.707 134.16 387 126Z" fill="white"/>
<path d="M612 320C612.293 328.16 618.84 334.707 627 335C618.84 335.293 612.293 341.84 612 350C611.707 341.84 605.16 335.293 597 335C605.16 334.707 611.707 328.16 612 320Z" fill="white"/>
<path d="M300 26C300.488 39.5998 311.4 50.5119 325 51C311.4 51.4881 300.488 62.4002 300 76C299.512 62.4002 288.6 51.4881 275 51C288.6 50.5119 299.512 39.5998 300 26Z" fill="white"/>
<path d="M30 0C30.5858 16.3198 43.6802 29.4143 60 30C43.6802 30.5858 30.5858 43.6802 30 60C29.4143 43.6802 16.3198 30.5858 0 30C16.3198 29.4143 29.4143 16.3198 30 0Z" fill="white"/>
<path d="M464 266C464.586 282.32 477.68 295.414 494 296C477.68 296.586 464.586 309.68 464 326C463.414 309.68 450.32 296.586 434 296C450.32 295.414 463.414 282.32 464 266Z" fill="white"/>
<path d="M654 218C654.488 231.6 665.4 242.512 679 243C665.4 243.488 654.488 254.4 654 268C653.512 254.4 642.6 243.488 629 243C642.6 242.512 653.512 231.6 654 218Z" fill="white"/>
</svg>
